<svg width="14" height="23" viewBox="0 0 14 23" fill="none" xmlns="http://www.w3.org/2000/svg">
<path d="M13.7015 16.8064C14.0951 16.419 14.1001 15.7858 13.7127 15.3922C13.3252 14.9986 12.6921 14.9937 12.2985 15.3811L13.7015 16.8064ZM6.29848 21.2873C5.9049 21.6748 5.89991 22.3079 6.28735 22.7015C6.67478 23.0951 7.30793 23.1001 7.70152 22.7127L6.29848 21.2873ZM6.29848 22.7127C6.69207 23.1001 7.32522 23.0951 7.71265 22.7015C8.10009 22.3079 8.0951 21.6748 7.70152 21.2873L6.29848 22.7127ZM1.70152 15.3811C1.30793 14.9937 0.674785 14.9986 0.287348 15.3922C-0.10009 15.7858 -0.0951042 16.419 0.298483 16.8064L1.70152 15.3811ZM6 22C6 22.5523 6.44772 23 7 23C7.55228 23 8 22.5523 8 22H6ZM8 1C8 0.447716 7.55228 0 7 0C6.44772 0 6 0.447716 6 1H8ZM12.2985 15.3811L6.29848 21.2873L7.70152 22.7127L13.7015 16.8064L12.2985 15.3811ZM7.70152 21.2873L1.70152 15.3811L0.298483 16.8064L6.29848 22.7127L7.70152 21.2873ZM8 22L8 1H6L6 22H8Z" fill="white"/>
</svg>
